<?xml version="1.0" encoding="iso-8859-1"?>
<!-- Generator: Adobe Illustrator 19.0.0, SVG Export Plug-In . SVG Version: 6.00 Build 0)  -->
<svg version="1.1" id="Layer_1" xmlns="http://www.w3.org/2000/svg" xmlns:xlink="http://www.w3.org/1999/xlink" x="0px" y="0px"
	 viewBox="0 0 511.999 511.999" style="enable-background:new 0 0 511.999 511.999;" xml:space="preserve">
<path style="fill:#9BC9FF;" d="M248.434,0.021c-66.359,0-128.746,25.841-175.67,72.763C25.841,119.708-0.002,182.094,0,248.452
	c0,12.851,10.419,23.269,23.27,23.269s23.27-10.419,23.27-23.27c0-53.926,20.999-104.624,59.133-142.755
	c38.132-38.132,88.833-59.133,142.761-59.133c12.851,0,23.27-10.419,23.27-23.27S261.285,0.021,248.434,0.021z"/>
<path style="fill:#57A4FF;" d="M248.434,90.085c-87.324,0-158.368,71.044-158.368,158.368c0,12.851,10.419,23.27,23.27,23.27
	s23.27-10.419,23.27-23.27c0-61.661,50.166-111.827,111.827-111.827c12.851,0,23.27-10.419,23.27-23.27
	S261.285,90.085,248.434,90.085z"/>
<path style="fill:#00E7F0;" d="M483.832,132.516c-0.914-0.917-63.601-63.599-63.601-63.599c-9.086-9.088-23.821-9.088-32.909,0
	l-95.197,95.194c-4.364,4.364-6.815,10.285-6.815,16.455c0,6.17,2.451,12.091,6.815,16.455l47.232,47.228l-47.572,47.57
	l-47.611,47.611l-47.231-47.231c-9.086-9.086-23.821-9.086-32.909,0.002l-95.158,95.156c-9.088,9.088-9.088,23.824-0.002,32.91
	c0,0,62.688,62.691,63.587,63.587c18.397,18.399,44.372,28.124,75.11,28.123c61.5-0.002,138.912-39.212,202.035-102.331l0.002-0.002
	c45.186-45.185,78.39-97.454,93.497-147.178C519.738,207.726,512.89,161.571,483.832,132.516z"/>
<path style="fill:#00D7DF;" d="M244.174,339.431L196.943,292.2c-9.086-9.086-23.821-9.085-32.909,0.002l-95.158,95.156
	c-9.088,9.088-9.088,23.824-0.002,32.91c0,0,62.688,62.691,63.587,63.587c18.397,18.399,44.372,28.124,75.11,28.123
	c61.5-0.002,138.912-39.212,202.035-102.331L291.783,291.822L244.174,339.431z"/>
<g>
</g>
<g>
</g>
<g>
</g>
<g>
</g>
<g>
</g>
<g>
</g>
<g>
</g>
<g>
</g>
<g>
</g>
<g>
</g>
<g>
</g>
<g>
</g>
<g>
</g>
<g>
</g>
<g>
</g>
</svg>
